<svg
    xmlns="http://www.w3.org/2000/svg"
    viewBox="0 0 31 36"
    id="vector">
    <path
        id="path"
        d="M 29.841 15.098 L 5.091 0.462 C 4.406 0.048 3.596 -0.107 2.806 0.024 C 2.017 0.155 1.3 0.564 0.786 1.177 C 0.271 1.789 -0.007 2.566 0 3.366 L 0 32.623 C 0 33.42 0.283 34.191 0.798 34.8 C 1.312 35.408 2.026 35.815 2.812 35.947 C 3.598 36.08 4.405 35.929 5.091 35.523 L 29.841 20.898 C 30.517 20.499 31.033 19.876 31.299 19.137 C 31.566 18.398 31.566 17.59 31.299 16.851 C 31.033 16.112 30.517 15.489 29.841 15.09 Z"
        fill="#ffffff"/>
</svg>
