<svg
    xmlns="http://www.w3.org/2000/svg"
    viewBox="0 0 108 108"
    id="vector">
    <path
        id="path"
        d="M 0 0 L 108 0 L 108 108 L 0 108 Z"
        fill="#3ddc84"/>
    <path
        id="path_1"
        d="M 9 0 L 9 108"
        fill="#00000000"
        stroke="#ffffff33"
        stroke-width="0.8"/>
    <path
        id="path_2"
        d="M 19 0 L 19 108"
        fill="#00000000"
        stroke="#ffffff33"
        stroke-width="0.8"/>
    <path
        id="path_3"
        d="M 29 0 L 29 108"
        fill="#00000000"
        stroke="#ffffff33"
        stroke-width="0.8"/>
    <path
        id="path_4"
        d="M 39 0 L 39 108"
        fill="#00000000"
        stroke="#ffffff33"
        stroke-width="0.8"/>
    <path
        id="path_5"
        d="M 49 0 L 49 108"
        fill="#00000000"
        stroke="#ffffff33"
        stroke-width="0.8"/>
    <path
        id="path_6"
        d="M 59 0 L 59 108"
        fill="#00000000"
        stroke="#ffffff33"
        stroke-width="0.8"/>
    <path
        id="path_7"
        d="M 69 0 L 69 108"
        fill="#00000000"
        stroke="#ffffff33"
        stroke-width="0.8"/>
    <path
        id="path_8"
        d="M 79 0 L 79 108"
        fill="#00000000"
        stroke="#ffffff33"
        stroke-width="0.8"/>
    <path
        id="path_9"
        d="M 89 0 L 89 108"
        fill="#00000000"
        stroke="#ffffff33"
        stroke-width="0.8"/>
    <path
        id="path_10"
        d="M 99 0 L 99 108"
        fill="#00000000"
        stroke="#ffffff33"
        stroke-width="0.8"/>
    <path
        id="path_11"
        d="M 0 9 L 108 9"
        fill="#00000000"
        stroke="#ffffff33"
        stroke-width="0.8"/>
    <path
        id="path_12"
        d="M 0 19 L 108 19"
        fill="#00000000"
        stroke="#ffffff33"
        stroke-width="0.8"/>
    <path
        id="path_13"
        d="M 0 29 L 108 29"
        fill="#00000000"
        stroke="#ffffff33"
        stroke-width="0.8"/>
    <path
        id="path_14"
        d="M 0 39 L 108 39"
        fill="#00000000"
        stroke="#ffffff33"
        stroke-width="0.8"/>
    <path
        id="path_15"
        d="M 0 49 L 108 49"
        fill="#00000000"
        stroke="#ffffff33"
        stroke-width="0.8"/>
    <path
        id="path_16"
        d="M 0 59 L 108 59"
        fill="#00000000"
        stroke="#ffffff33"
        stroke-width="0.8"/>
    <path
        id="path_17"
        d="M 0 69 L 108 69"
        fill="#00000000"
        stroke="#ffffff33"
        stroke-width="0.8"/>
    <path
        id="path_18"
        d="M 0 79 L 108 79"
        fill="#00000000"
        stroke="#ffffff33"
        stroke-width="0.8"/>
    <path
        id="path_19"
        d="M 0 89 L 108 89"
        fill="#00000000"
        stroke="#ffffff33"
        stroke-width="0.8"/>
    <path
        id="path_20"
        d="M 0 99 L 108 99"
        fill="#00000000"
        stroke="#ffffff33"
        stroke-width="0.8"/>
    <path
        id="path_21"
        d="M 19 29 L 89 29"
        fill="#00000000"
        stroke="#ffffff33"
        stroke-width="0.8"/>
    <path
        id="path_22"
        d="M 19 39 L 89 39"
        fill="#00000000"
        stroke="#ffffff33"
        stroke-width="0.8"/>
    <path
        id="path_23"
        d="M 19 49 L 89 49"
        fill="#00000000"
        stroke="#ffffff33"
        stroke-width="0.8"/>
    <path
        id="path_24"
        d="M 19 59 L 89 59"
        fill="#00000000"
        stroke="#ffffff33"
        stroke-width="0.8"/>
    <path
        id="path_25"
        d="M 19 69 L 89 69"
        fill="#00000000"
        stroke="#ffffff33"
        stroke-width="0.8"/>
    <path
        id="path_26"
        d="M 19 79 L 89 79"
        fill="#00000000"
        stroke="#ffffff33"
        stroke-width="0.8"/>
    <path
        id="path_27"
        d="M 29 19 L 29 89"
        fill="#00000000"
        stroke="#ffffff33"
        stroke-width="0.8"/>
    <path
        id="path_28"
        d="M 39 19 L 39 89"
        fill="#00000000"
        stroke="#ffffff33"
        stroke-width="0.8"/>
    <path
        id="path_29"
        d="M 49 19 L 49 89"
        fill="#00000000"
        stroke="#ffffff33"
        stroke-width="0.8"/>
    <path
        id="path_30"
        d="M 59 19 L 59 89"
        fill="#00000000"
        stroke="#ffffff33"
        stroke-width="0.8"/>
    <path
        id="path_31"
        d="M 69 19 L 69 89"
        fill="#00000000"
        stroke="#ffffff33"
        stroke-width="0.8"/>
    <path
        id="path_32"
        d="M 79 19 L 79 89"
        fill="#00000000"
        stroke="#ffffff33"
        stroke-width="0.8"/>
</svg>
