<svg
    xmlns="http://www.w3.org/2000/svg"
    viewBox="0 0 23 28"
    id="vector">
    <path
        id="path"
        d="M 11.443 6.489 C 8.694 6.489 3.143 11.471 0.677 20.863 C -1.789 30.255 24.328 30.427 23.068 21.55 C 21.808 12.673 14.192 6.489 11.443 6.489 Z"
        fill="#00000000"
        stroke="#707070"
        stroke-width="1"/>
    <path
        id="path_1"
        d="M 19.981 3 M 16.981 3 C 16.981 2.205 17.297 1.441 17.86 0.879 C 18.422 0.316 19.186 0 19.981 0 C 20.776 0 21.54 0.316 22.102 0.879 C 22.665 1.441 22.981 2.205 22.981 3 C 22.981 3.795 22.665 4.559 22.102 5.121 C 21.54 5.684 20.776 6 19.981 6 C 19.186 6 18.422 5.684 17.86 5.121 C 17.297 4.559 16.981 3.795 16.981 3"
        fill="#ffffff"
        stroke="#00000000"
        stroke-width="1"/>
    <path
        id="path_2"
        d="M 19.981 3 M 17.481 3 C 17.481 2.472 17.648 1.958 17.958 1.531 C 18.269 1.103 18.706 0.785 19.208 0.622 C 19.71 0.459 20.252 0.459 20.754 0.622 C 21.256 0.785 21.693 1.103 22.004 1.531 C 22.314 1.958 22.481 2.472 22.481 3 C 22.481 3.528 22.314 4.042 22.004 4.469 C 21.693 4.897 21.256 5.215 20.754 5.378 C 20.252 5.541 19.71 5.541 19.208 5.378 C 18.706 5.215 18.269 4.897 17.958 4.469 C 17.648 4.042 17.481 3.528 17.481 3"
        fill="#00000000"
        stroke="#707070"
        stroke-width="1"/>
</svg>
