<svg
    xmlns="http://www.w3.org/2000/svg"
    viewBox="0 0 30 30"
    id="vector">
    <path
        id="path"
        d="M 1.5 24 L 1.5 15 C 1.5 11.421 2.923 7.985 5.454 5.454 C 7.985 2.923 11.421 1.5 15 1.5 C 18.579 1.5 22.015 2.923 24.546 5.454 C 27.077 7.985 28.5 11.421 28.5 15 L 28.5 24"
        fill="#00000000"
        stroke="#ffffff"
        stroke-width="3"
        stroke-linecap="round"
        stroke-linejoin="round"/>
    <path
        id="path_1"
        d="M 28.5 25.5 C 28.5 26.295 28.184 27.059 27.621 27.621 C 27.059 28.184 26.295 28.5 25.5 28.5 L 24 28.5 C 23.205 28.5 22.441 28.184 21.879 27.621 C 21.316 27.059 21 26.295 21 25.5 L 21 21 C 21 20.205 21.316 19.441 21.879 18.879 C 22.441 18.316 23.205 18 24 18 L 28.5 18 Z M 1.5 25.5 C 1.5 26.295 1.816 27.059 2.379 27.621 C 2.941 28.184 3.705 28.5 4.5 28.5 L 6 28.5 C 6.795 28.5 7.559 28.184 8.121 27.621 C 8.684 27.059 9 26.295 9 25.5 L 9 21 C 9 20.205 8.684 19.441 8.121 18.879 C 7.559 18.316 6.795 18 6 18 L 1.5 18 Z"
        fill="#00000000"
        stroke="#ffffff"
        stroke-width="3"
        stroke-linecap="round"
        stroke-linejoin="round"/>
</svg>
