<svg
    xmlns="http://www.w3.org/2000/svg"
    viewBox="0 0 30 30"
    id="vector">
    <path
        id="path"
        d="M 10.5 24 L 10.5 4.5 L 28.5 1.5 L 28.5 21"
        fill="#00000000"
        stroke="#000000"
        stroke-width="3"
        stroke-linecap="round"
        stroke-linejoin="round"/>
    <path
        id="path_1"
        d="M 10.5 24 C 10.5 25.193 10.026 26.338 9.182 27.182 C 8.338 28.026 7.193 28.5 6 28.5 C 4.807 28.5 3.662 28.026 2.818 27.182 C 1.974 26.338 1.5 25.193 1.5 24 C 1.5 22.807 1.974 21.662 2.818 20.818 C 3.662 19.974 4.807 19.5 6 19.5 C 6.79 19.5 7.566 19.708 8.25 20.103 C 8.934 20.498 9.502 21.066 9.897 21.75 C 10.292 22.434 10.5 23.21 10.5 24 Z"
        fill="#00000000"
        stroke="#000000"
        stroke-width="3"
        stroke-linecap="round"
        stroke-linejoin="round"/>
    <path
        id="path_2"
        d="M 28.5 21 C 28.5 22.193 28.026 23.338 27.182 24.182 C 26.338 25.026 25.193 25.5 24 25.5 C 22.807 25.5 21.662 25.026 20.818 24.182 C 19.974 23.338 19.5 22.193 19.5 21 C 19.5 19.807 19.974 18.662 20.818 17.818 C 21.662 16.974 22.807 16.5 24 16.5 C 25.193 16.5 26.338 16.974 27.182 17.818 C 28.026 18.662 28.5 19.807 28.5 21 Z"
        fill="#00000000"
        stroke="#000000"
        stroke-width="3"
        stroke-linecap="round"
        stroke-linejoin="round"/>
</svg>
