<svg
    xmlns="http://www.w3.org/2000/svg"
    viewBox="0 0 24 24"
    id="vector">
    <path
        id="path"
        d="M 12 2.85 C 12.835 2.85 13.637 3.182 14.227 3.773 C 14.818 4.363 15.15 5.165 15.15 6 C 15.15 6.835 14.818 7.637 14.227 8.227 C 13.637 8.818 12.835 9.15 12 9.15 C 11.165 9.15 10.363 8.818 9.773 8.227 C 9.182 7.637 8.85 6.835 8.85 6 C 8.85 5.165 9.182 4.363 9.773 3.773 C 10.363 3.182 11.165 2.85 12 2.85 M 12 16.35 C 16.455 16.35 21.15 18.54 21.15 19.5 L 21.15 21.15 L 2.85 21.15 L 2.85 19.5 C 2.85 18.54 7.545 16.35 12 16.35 M 12 0 C 10.409 0 8.882 0.633 7.757 1.757 C 6.633 2.882 6 4.409 6 6 C 6 7.591 6.633 9.118 7.757 10.243 C 8.882 11.367 10.409 12 12 12 C 13.591 12 15.118 11.367 16.243 10.243 C 17.367 9.118 18 7.591 18 6 C 18 4.409 17.367 2.882 16.243 1.757 C 15.118 0.633 13.591 0 12 0 Z M 12 13.5 C 7.995 13.5 0 15.51 0 19.5 L 0 24 L 24 24 L 24 19.5 C 24 15.51 16.005 13.5 12 13.5 Z"
        fill="#000000"/>
</svg>
