<svg
    xmlns="http://www.w3.org/2000/svg"
    viewBox="0 0 29 29"
    id="vector">
    <path
        id="path"
        d="M 28.444 16.185 C 28.128 19.606 26.517 22.781 23.943 25.057 C 21.369 27.332 18.021 28.542 14.587 28.436 C 11.152 28.331 7.885 26.918 5.455 24.489 C 3.026 22.059 1.613 18.792 1.508 15.357 C 1.402 11.923 2.612 8.575 4.887 6.001 C 7.163 3.427 10.338 1.816 13.759 1.5 C 12.265 3.522 11.545 6.015 11.732 8.522 C 11.919 11.029 13 13.388 14.778 15.166 C 16.556 16.944 18.915 18.025 21.422 18.212 C 23.929 18.399 26.422 17.679 28.444 16.185 Z"
        fill="#00000000"
        stroke="#000000"
        stroke-width="3"
        stroke-linecap="round"
        stroke-linejoin="round"/>
</svg>
